<svg width="217" height="65" viewBox="0 0 217 65" fill="none" xmlns="http://www.w3.org/2000/svg">
	<title>Tabajaras logo</title>
	<desc>Tabajaras text in Ubuntu font with a small whitespace before the supplied blue logo mark.</desc>
	<text x="0.7" y="42.7" font-family="Ubuntu, Arial, Helvetica, sans-serif" font-size="38" font-weight="500" letter-spacing="-0.8" fill="#0058AB">Tabajaras</text>

	<g transform="translate(-69.765 0)">
		<path d="M283.248 21.3699C281.91 16.9202 279.199 13.0201 275.599 9.71371C271.711 6.16082 267.091 3.46857 262.249 1.43706C261.86 1.27373 261.468 1.11429 261.074 0.958885C261.074 0.958589 261.073 0.958335 261.072 0.958038C255.111 8.10214 234.465 13.4338 234.465 28.4057C234.465 34.2622 238.166 39.7342 243.596 41.9309C246.972 43.075 250.609 42.8622 253.851 41.3858C256.984 39.959 259.369 37.4471 261.291 34.6462C263.319 31.6896 264.863 28.4428 266.791 25.4247C268.581 22.6206 270.87 19.8218 274.267 19.0314C277.345 18.3149 280.994 19.115 283.248 21.3699Z" fill="#0058AB"/>
		<path d="M283.38 24.4072C282.012 21.672 279.135 20.4977 276.184 20.6368C273.335 20.7711 271.257 22.5848 269.671 24.8144C267.877 27.3375 266.617 30.2172 265.152 32.9339C263.74 35.552 262.221 38.1172 260.188 40.3091C257.934 42.7396 255.101 44.5714 251.921 45.5336C253.392 46.5934 255.431 46.831 257.189 46.8987C259.176 46.9753 261.185 46.7936 263.141 46.4434C266.712 45.8037 270.568 44.5508 273.209 41.9437C269.088 41.997 265.766 39.2264 265.47 35.0494C268.121 38.2592 272.131 39.4955 276.143 38.3532C279.659 37.3524 282.483 34.5727 283.622 31.1099C284.345 28.9115 284.416 26.5221 283.38 24.4072Z" fill="#0058AB"/>
	</g>
</svg>
